<?xml version="1.0" standalone="no"?>
<svg xmlns="http://www.w3.org/2000/svg" xmlns:xlink="http://www.w3.org/1999/xlink" width="967" height="600" viewBox="0 0 967 600">
  <defs>
    <clipPath id="clip-path">
      <path id="Path_899" data-name="Path 899" d="M526.381-623.061a6.027,6.027,0,0,0,1.243-3.652,6.067,6.067,0,0,0-7.251-5.975,6.04,6.04,0,0,0-4.762,4.782,6.056,6.056,0,0,0,1.117,4.822,6.848,6.848,0,0,1,1.227,2.8l-19.405-.085-.085,19.405a6.864,6.864,0,0,0,2.8-1.227,6.069,6.069,0,0,1,4.824-1.119,6.041,6.041,0,0,1,4.78,4.762,6.069,6.069,0,0,1-5.975,7.253,6.028,6.028,0,0,1-3.652-1.246,7,7,0,0,0-2.808-1.264l-.085,19.4,19.4.085a7.006,7.006,0,0,1-1.264,2.808,6.027,6.027,0,0,0-1.243,3.652,6.067,6.067,0,0,0,7.251,5.975,6.037,6.037,0,0,0,4.762-4.78,6.063,6.063,0,0,0-1.117-4.824,6.839,6.839,0,0,1-1.227-2.8l19.405.085L544.4-593.6a6.837,6.837,0,0,0-2.8,1.227,6.065,6.065,0,0,1-4.822,1.117A6.037,6.037,0,0,1,532-596.021a6.066,6.066,0,0,1,5.975-7.251,6.026,6.026,0,0,1,3.652,1.243,7,7,0,0,0,2.808,1.264l.085-19.4-19.4-.083A7,7,0,0,1,526.381-623.061Z" transform="translate(-498.351 632.801)" fill="none"/>
    </clipPath>
    <clipPath id="clip-sexualhealth">
      <rect width="967" height="600"/>
    </clipPath>
  </defs>
  <g id="sexualhealth" clip-path="url(#clip-sexualhealth)">
    <g id="Group_533" data-name="Group 533" transform="translate(62.438 910.767)">
      <g id="Group_534" data-name="Group 534" transform="translate(-232.702 -196.012)">
        <g id="Group_432" data-name="Group 432" transform="translate(441.692 -570.391)">
          <g id="Group_431" data-name="Group 431">
            <path id="Path_803" data-name="Path 803" d="M318.777-632.315a30.783,30.783,0,0,1,7.57.942,38.192,38.192,0,0,1,35.212-23.395A38.187,38.187,0,0,1,399.1-623.523a23.139,23.139,0,0,1,7.446-1.243,23.186,23.186,0,0,1,22.742,18.693H288.373A30.738,30.738,0,0,1,318.777-632.315Z" transform="translate(-288.373 654.768)" fill="#f99c3f"/>
          </g>
        </g>
        <g id="Group_434" data-name="Group 434" transform="translate(170.265 -453.497)">
          <g id="Group_433" data-name="Group 433">
            <path id="Path_804" data-name="Path 804" d="M193.816-586.511a23.839,23.839,0,0,1,5.865.731A29.584,29.584,0,0,1,226.957-603.9a29.579,29.579,0,0,1,29.08,24.2,17.885,17.885,0,0,1,5.768-.963,17.958,17.958,0,0,1,17.615,14.48H170.265A23.81,23.81,0,0,1,193.816-586.511Z" transform="translate(-170.265 603.903)" fill="#f99c3f"/>
          </g>
        </g>
        <g id="Group_436" data-name="Group 436" transform="translate(271.297 -297.39)">
          <g id="Group_435" data-name="Group 435">
            <path id="Path_805" data-name="Path 805" d="M356.123-507.147a39.514,39.514,0,0,0-9.721,1.209,49.04,49.04,0,0,0-45.211-30.036,49.03,49.03,0,0,0-48.205,40.118,29.648,29.648,0,0,0-9.56-1.6,29.768,29.768,0,0,0-29.2,24H395.159A39.463,39.463,0,0,0,356.123-507.147Z" transform="translate(-214.228 535.975)" fill="#f99c3f"/>
          </g>
        </g>
        <g id="Group_437" data-name="Group 437" transform="translate(265.77 -528.579)">
          <path id="Path_806" data-name="Path 806" d="M383.663-566.149a7.584,7.584,0,0,0-10.622,1.517A88.826,88.826,0,0,1,289.2-530a87.937,87.937,0,0,1-32.491-11.461,17.18,17.18,0,0,0,.253-2.834,17.269,17.269,0,0,0-17.25-17.25,17.269,17.269,0,0,0-17.252,17.25,17.269,17.269,0,0,0,17.252,17.25,17.154,17.154,0,0,0,8.158-2.057,102.927,102.927,0,0,0,39.149,14.117,103.88,103.88,0,0,0,14.97,1.082,104,104,0,0,0,83.185-41.626A7.586,7.586,0,0,0,383.663-566.149ZM239.715-539.688a4.611,4.611,0,0,1-4.605-4.605,4.611,4.611,0,0,1,4.605-4.605,4.611,4.611,0,0,1,4.605,4.605A4.611,4.611,0,0,1,239.715-539.688Z" transform="translate(-198.01 726.023)" fill="#fcaf61"/>
          <path id="Path_807" data-name="Path 807" d="M227.922-541.165a88.748,88.748,0,0,1,44.85-64.89,17.164,17.164,0,0,0,11.008,3.983,17.271,17.271,0,0,0,17.252-17.25,17.271,17.271,0,0,0-17.252-17.252,17.259,17.259,0,0,0-17.22,16.648,103.911,103.911,0,0,0-53.657,76.58,103.968,103.968,0,0,0,6.228,53.268,7.588,7.588,0,0,0,7.053,4.785,7.579,7.579,0,0,0,2.8-.538,7.589,7.589,0,0,0,4.247-9.854A88.744,88.744,0,0,1,227.922-541.165Zm55.858-82.762a4.611,4.611,0,0,1,4.605,4.605,4.61,4.61,0,0,1-4.605,4.6,4.61,4.61,0,0,1-4.605-4.6A4.611,4.611,0,0,1,283.78-623.927Z" transform="translate(-211.823 636.574)" fill="#fcaf61"/>
          <path id="Path_808" data-name="Path 808" d="M357.458-529.91a103.289,103.289,0,0,0-89-104.312,7.583,7.583,0,0,0-8.6,6.416,7.588,7.588,0,0,0,6.419,8.6c43.536,6.325,76.082,44.471,76.013,87.975a17.266,17.266,0,0,0-11,16.062,17.269,17.269,0,0,0,17.247,17.252,17.27,17.27,0,0,0,17.252-17.252A17.238,17.238,0,0,0,357.458-529.91Zm-8.917,19.346a4.61,4.61,0,0,1-4.6-4.605,4.61,4.61,0,0,1,4.6-4.606,4.613,4.613,0,0,1,4.608,4.606A4.613,4.613,0,0,1,348.541-510.565Z" transform="translate(-149.567 639.522)" fill="#fcaf61"/>
          <path id="Path_809" data-name="Path 809" d="M227.388-550.911a68.5,68.5,0,0,0,68.42,68.42,68.5,68.5,0,0,0,68.42-68.42,68.5,68.5,0,0,0-68.42-68.42A68.5,68.5,0,0,0,227.388-550.911Zm68.42-41.258a11.653,11.653,0,0,1,11.64,11.64,11.653,11.653,0,0,1-11.64,11.64,11.653,11.653,0,0,1-11.64-11.64A11.653,11.653,0,0,1,295.808-592.169ZM282.927-526.99a1.063,1.063,0,0,1,1.064-1.064h3.291v-18.957h-3.291a1.063,1.063,0,0,1-1.064-1.064v-15.735a1.063,1.063,0,0,1,1.064-1.062h21.664a1.063,1.063,0,0,1,1.064,1.062v35.757h3.291a1.063,1.063,0,0,1,1.064,1.064v13.476a1.063,1.063,0,0,1-1.064,1.064H283.991a1.063,1.063,0,0,1-1.064-1.064Z" transform="translate(-191.617 658.958)" fill="#fcaf61"/>
        </g>
        <g id="Group_438" data-name="Group 438" transform="translate(388.399 -543.375)">
          <path id="Path_810" data-name="Path 810" d="M303.323-617.974h0a18.122,18.122,0,0,0-11.67-16.926l.023-.014a3.551,3.551,0,0,1-2.167-3.206v-.588a4.311,4.311,0,0,0-4.316-4.3,4.313,4.313,0,0,0-4.318,4.3v.588a3.48,3.48,0,0,1-2.16,3.206l.021.014a18.118,18.118,0,0,0-11.674,16.926h0v47.486h36.262Z" transform="translate(-262.745 643.012)" fill="#f9dbe4"/>
          <path id="Path_811" data-name="Path 811" d="M305.761-611.792H269.5a4.317,4.317,0,0,0-4.316,4.318,4.315,4.315,0,0,0,4.316,4.316h36.262a4.317,4.317,0,0,0,4.318-4.316A4.319,4.319,0,0,0,305.761-611.792Z" transform="translate(-265.183 683.54)" fill="#f3b6c6"/>
        </g>
        <g id="Group_439" data-name="Group 439" transform="translate(947.611 -349.02)">
          <path id="Path_812" data-name="Path 812" d="M520.881-533.711a12.377,12.377,0,0,1-12.364-12.364,12.378,12.378,0,0,1,12.364-12.366,12.378,12.378,0,0,1,12.364,12.366A12.377,12.377,0,0,1,520.881-533.711Zm0-20.833a8.478,8.478,0,0,0-8.469,8.469,8.479,8.479,0,0,0,8.469,8.469,8.479,8.479,0,0,0,8.469-8.469A8.478,8.478,0,0,0,520.881-554.543Z" transform="translate(-508.517 558.441)" fill="#f1c831"/>
        </g>
        <g id="Group_442" data-name="Group 442" transform="translate(605.004 -719.767)">
          <g id="Group_440" data-name="Group 440">
            <path id="Path_813" data-name="Path 813" d="M360.173-554.91h-.736V-685.538l.736-34.229Z" transform="translate(-359.436 719.767)" fill="#c7d9f1"/>
          </g>
          <g id="Group_441" data-name="Group 441" transform="translate(162.292)">
            <path id="Path_814" data-name="Path 814" d="M430.792-554.91h-.736V-719.767l.736,34.229Z" transform="translate(-430.055 719.767)" fill="#c7d9f1"/>
          </g>
        </g>
        <g id="Group_443" data-name="Group 443" transform="translate(198.165 -480.146)">
          <path id="Path_815" data-name="Path 815" d="M269.29-611.158c-1.494-1.487-5.525-3.647-8.2-3.7a6.673,6.673,0,0,0-2.843-.637H231.566a6.731,6.731,0,0,0-4.985,2.218A6.716,6.716,0,0,0,221.6-615.5H194.92a6.676,6.676,0,0,0-2.838.637c-2.682.057-6.71,2.218-8.207,3.7a4.987,4.987,0,0,0-.021,7.051,4.987,4.987,0,0,0,7.053.018,15.766,15.766,0,0,0,3.73-7.864c.094-.007.186-.028.283-.028H221.6a3.227,3.227,0,0,1,3.227,3.224h3.518a3.228,3.228,0,0,1,3.224-3.224h26.677c.1,0,.193.021.287.028a15.749,15.749,0,0,0,3.732,7.864,4.979,4.979,0,0,0,7.046-.018A4.982,4.982,0,0,0,269.29-611.158Z" transform="translate(-182.405 615.499)" fill="#141e3e"/>
          <path id="Path_816" data-name="Path 816" d="M205.127-582.061h-.267v-5.883h-2.2v5.883h-.269a2.4,2.4,0,0,0-2.4,2.4v7.506a2.4,2.4,0,0,0,2.4,2.4h2.737a2.4,2.4,0,0,0,2.4-2.4v-7.506A2.4,2.4,0,0,0,205.127-582.061Zm1.149,9.907A1.15,1.15,0,0,1,205.127-571H202.39a1.15,1.15,0,0,1-1.149-1.149v-7.506a1.152,1.152,0,0,1,1.149-1.149h2.737a1.153,1.153,0,0,1,1.149,1.149Z" transform="translate(-159.581 651.269)" fill="#141e3e"/>
          <path id="Path_817" data-name="Path 817" d="M211.952-604.8a1.132,1.132,0,0,0-1.11-1.119v-.758a1.139,1.139,0,0,0,1.11-1.124,1.134,1.134,0,0,0-1.11-1.119v-.636a3.094,3.094,0,0,0-3.093-3.093h-4.787a3.092,3.092,0,0,0-3.091,3.093v.636a1.137,1.137,0,0,0-1.112,1.119,1.143,1.143,0,0,0,1.112,1.124v.758a1.136,1.136,0,0,0-1.112,1.119,1.136,1.136,0,0,0,1.112,1.119v.763a1.136,1.136,0,0,0-1.112,1.119,1.138,1.138,0,0,0,1.112,1.121v.761a1.137,1.137,0,0,0-1.112,1.119,1.138,1.138,0,0,0,1.112,1.121v.761a1.137,1.137,0,0,0-1.112,1.119,1.138,1.138,0,0,0,1.112,1.121v.761a1.138,1.138,0,0,0-1.112,1.121,1.137,1.137,0,0,0,1.112,1.119v.759a1.141,1.141,0,0,0-1.112,1.124,1.137,1.137,0,0,0,1.112,1.119v.758a1.143,1.143,0,0,0-1.112,1.124,1.141,1.141,0,0,0,1.112,1.119v.758a1.141,1.141,0,0,0-1.112,1.122,1.144,1.144,0,0,0,1.112,1.124v.756a1.139,1.139,0,0,0-1.112,1.121,1.141,1.141,0,0,0,1.112,1.124v.756a1.139,1.139,0,0,0-1.112,1.121,1.138,1.138,0,0,0,1.112,1.121v.761a1.137,1.137,0,0,0-1.112,1.119,1.134,1.134,0,0,0,1.112,1.119v.763a1.137,1.137,0,0,0-1.112,1.119,1.138,1.138,0,0,0,1.112,1.121v.761a1.136,1.136,0,0,0-1.112,1.119,1.138,1.138,0,0,0,1.112,1.121v.759a1.141,1.141,0,0,0-1.112,1.121,1.138,1.138,0,0,0,1.112,1.121v.758a1.141,1.141,0,0,0-1.112,1.124,1.141,1.141,0,0,0,1.112,1.119v.758a1.141,1.141,0,0,0-1.112,1.122,1.143,1.143,0,0,0,1.112,1.124v.3a3.092,3.092,0,0,0,3.091,3.091h4.787a3.094,3.094,0,0,0,3.093-3.091v-.3a1.139,1.139,0,0,0,1.11-1.124,1.137,1.137,0,0,0-1.11-1.122v-.758a1.137,1.137,0,0,0,1.11-1.119,1.139,1.139,0,0,0-1.11-1.124v-.758a1.134,1.134,0,0,0,1.11-1.121,1.137,1.137,0,0,0-1.11-1.121v-.759a1.134,1.134,0,0,0,1.11-1.121,1.132,1.132,0,0,0-1.11-1.119v-.761a1.134,1.134,0,0,0,1.11-1.121,1.133,1.133,0,0,0-1.11-1.119v-.763a1.13,1.13,0,0,0,1.11-1.119,1.134,1.134,0,0,0-1.11-1.119v-.761a1.134,1.134,0,0,0,1.11-1.121,1.136,1.136,0,0,0-1.11-1.121v-.756a1.138,1.138,0,0,0,1.11-1.124,1.136,1.136,0,0,0-1.11-1.121v-.756a1.141,1.141,0,0,0,1.11-1.124,1.137,1.137,0,0,0-1.11-1.122v-.758a1.137,1.137,0,0,0,1.11-1.119,1.139,1.139,0,0,0-1.11-1.124v-.758a1.135,1.135,0,0,0,1.11-1.119,1.138,1.138,0,0,0-1.11-1.124v-.759a1.133,1.133,0,0,0,1.11-1.119,1.134,1.134,0,0,0-1.11-1.121v-.761a1.134,1.134,0,0,0,1.11-1.121,1.134,1.134,0,0,0-1.11-1.119v-.761a1.134,1.134,0,0,0,1.11-1.121,1.134,1.134,0,0,0-1.11-1.119v-.761a1.134,1.134,0,0,0,1.11-1.121,1.134,1.134,0,0,0-1.11-1.119v-.763A1.132,1.132,0,0,0,211.952-604.8Z" transform="translate(-161.177 619.193)" fill="#f1c831"/>
        </g>
        <g id="Group_447" data-name="Group 447" transform="translate(206.34 -340.115)">
          <g id="Group_445" data-name="Group 445">
            <g id="Group_444" data-name="Group 444">
              <path id="Path_818" data-name="Path 818" d="M257.173-511.693a24.862,24.862,0,0,0-24.863-24.861h-4.019v6.876l-10.847-6.876h-7.007a24.472,24.472,0,0,0-24.418,26.116l2.542,37.738h68.613v-11.7l21.352-4.107v-9.372l-21.352-.374Z" transform="translate(-185.962 577.948)" fill="#7bc1b0"/>
              <path id="Path_819" data-name="Path 819" d="M305.028-536.554h-7.007l-10.845,6.876v-6.876h-4.019a24.862,24.862,0,0,0-24.863,24.861v13.437l-21.352.374v9.372l21.352,4.107v11.7H326.9l2.542-37.738A24.472,24.472,0,0,0,305.028-536.554Z" transform="translate(-119.786 577.948)" fill="#0060af"/>
              <path id="Path_820" data-name="Path 820" d="M214.834-543.909H202.488a5,5,0,0,0-5.005,5.005,5.005,5.005,0,0,0,5.005,5.005v15.018L213.335-512v-16.055h1.779a9.065,9.065,0,0,0,9.066-9.064v-6.786l-9.346-6.26Z" transform="translate(-171.007 560.274)" fill="#cd6b40"/>
              <path id="Path_821" data-name="Path 821" d="M275.771-545.088H271.6v-4.173H254.081v10.96a9.065,9.065,0,0,0,9.064,9.064h1.781v16.054l10.845-6.876v-15.018a5.007,5.007,0,0,0,5.008-5.005A5.007,5.007,0,0,0,275.771-545.088Z" transform="translate(-97.536 561.453)" fill="#cd6b40"/>
              <path id="Path_822" data-name="Path 822" d="M214.116-553.2h-4.948a14.125,14.125,0,0,0-14.124,14.124,14.128,14.128,0,0,0,10.61,13.683v-4.564a5.005,5.005,0,0,1-5.005-5.005,5,5,0,0,1,5.005-5.005H218v-6.26l9.346,6.26h0A13.232,13.232,0,0,0,214.116-553.2Z" transform="translate(-174.173 556.335)" fill="#141e3e"/>
              <path id="Path_823" data-name="Path 823" d="M275.7-551.434H262.85a6.088,6.088,0,0,0-5.325-3.132,6.094,6.094,0,0,0-6.1,6.1,6.094,6.094,0,0,0,6.1,6.095v0h17.519v4.173h4.171a5.007,5.007,0,0,1,5.008,5.005,5.007,5.007,0,0,1-5.008,5.005v4.564a14.126,14.126,0,0,0,10.61-13.683A14.125,14.125,0,0,0,275.7-551.434Z" transform="translate(-100.98 554.566)" fill="#141e3e"/>
            </g>
          </g>
          <g id="Group_446" data-name="Group 446" transform="translate(92.562 73.553)">
            <path id="Path_824" data-name="Path 824" d="M243.989-516.046l-12.3-6.514-.182.1v15.79h12.479Z" transform="translate(-219.397 522.56)" fill="#cd6b40"/>
            <path id="Path_825" data-name="Path 825" d="M226.24-516.1v9.372h12.114v-15.79Z" transform="translate(-226.24 522.615)" fill="#cd6b40"/>
          </g>
        </g>
        <g id="Group_451" data-name="Group 451" transform="translate(1007.022 -585.662)">
          <g id="Group_448" data-name="Group 448" transform="translate(61.645)">
            <path id="Path_826" data-name="Path 826" d="M582-632.647l.552-.8c.152-.287.3-.584.436-.887a10.572,10.572,0,0,0,.837-3.6c.071-1.108.053-2.1.076-2.942a8.487,8.487,0,0,1,.269-2.006,3.261,3.261,0,0,1,.3-.641,2.908,2.908,0,0,1,.17-.274c.078-.083.15-.165.216-.251a1.252,1.252,0,0,1,.1-.124l.14-.117c.092-.078.182-.159.265-.241.181-.149.4-.25.565-.391.2-.062.352-.165.526-.207a2.6,2.6,0,0,1,.513-.094l.264-.03.317,0c.179-.018.473.03.7.037.588.053,1.3.163,2.075.262a15.386,15.386,0,0,1-2.075-1.733,15.344,15.344,0,0,1-3.47-5.352,12.26,12.26,0,0,0-1.374.611,13.249,13.249,0,0,0-1.54,1.032,16.946,16.946,0,0,0-1.28,1.26c-.184.239-.375.476-.563.715l-.274.368c-.087.129-.165.273-.246.411-.161.276-.315.563-.467.846s-.248.609-.365.915a10.128,10.128,0,0,0-.462,1.889,14.735,14.735,0,0,0,.035,3.39c.124.993.257,1.848.322,2.611a4.545,4.545,0,0,1-.951,3.58,5.064,5.064,0,0,1-1.505,1.237,5.618,5.618,0,0,1-2.068.538c-.816.076-1.717.071-2.68.087a14.769,14.769,0,0,0-3.031.335,8.126,8.126,0,0,0-1.5.549c-.237.122-.48.225-.7.365s-.423.3-.63.446a3.433,3.433,0,0,0-.57.487c-.172.172-.347.34-.519.51-.326.352-.593.752-.876,1.115a11.5,11.5,0,0,0-.639,1.236,6.914,6.914,0,0,0-.382,1.28c-.037.216-.085.425-.113.632s-.025.411-.039.618a10.334,10.334,0,0,0,.007,1.167c.106,1.5.372,2.753.427,3.879,0,.278.035.552.021.811s-.03.51-.039.754a6.967,6.967,0,0,1-.3,1.287,4.622,4.622,0,0,1-.437.99,3.488,3.488,0,0,1-.437.68c-.264.358-.409.547-.409.547l.485-.485a3.352,3.352,0,0,0,.542-.625,4.922,4.922,0,0,0,.6-.958,6.876,6.876,0,0,0,.522-1.328c.053-.255.11-.522.163-.8s.069-.563.106-.864c.113-1.186.032-2.528.142-3.882a6.22,6.22,0,0,1,1.43-3.714c.264-.239.5-.508.777-.731.145-.106.292-.209.437-.312a1.722,1.722,0,0,1,.451-.283l.464-.237a4.765,4.765,0,0,1,.494-.163,5.179,5.179,0,0,1,1.027-.214,12.072,12.072,0,0,1,2.367.1c.869.113,1.815.26,2.87.326a9.578,9.578,0,0,0,3.461-.391c.3-.106.59-.214.885-.326l.83-.45a4.33,4.33,0,0,0,.77-.515l.729-.568.646-.662A4.688,4.688,0,0,0,582-632.647Z" transform="translate(-561.193 673.594)" fill="#f99c3f"/>
            <path id="Path_827" data-name="Path 827" d="M596.832-635.4c-6.334,6.334-16.16,6.779-21.947.993s-5.343-15.616.99-21.952,16.165-6.78,21.952-.991S603.168-641.732,596.832-635.4Z" transform="translate(-548.698 661.413)" fill="#f99c3f"/>
          </g>
          <g id="Group_449" data-name="Group 449" transform="translate(0 16.466)">
            <path id="Path_828" data-name="Path 828" d="M555.176-625.595l.554-.8c.149-.292.294-.588.439-.887a10.655,10.655,0,0,0,.83-3.6c.076-1.108.055-2.1.078-2.939a8.625,8.625,0,0,1,.269-2.011,3.225,3.225,0,0,1,.3-.639c.064-.092.1-.191.168-.273s.149-.165.218-.251a1.554,1.554,0,0,1,.1-.124l.142-.115c.094-.08.179-.161.264-.241.182-.152.4-.253.565-.391.191-.064.352-.165.524-.209a2.435,2.435,0,0,1,.512-.092l.264-.032.317.007c.182-.018.476.03.7.034.588.053,1.294.165,2.075.262a15.183,15.183,0,0,1-2.075-1.733,15.287,15.287,0,0,1-3.47-5.352,13.687,13.687,0,0,0-1.374.611,13.583,13.583,0,0,0-1.542,1.032,16.909,16.909,0,0,0-1.278,1.259c-.186.237-.377.476-.561.717l-.278.365c-.085.129-.165.269-.244.411-.161.278-.317.563-.467.848s-.248.609-.365.915a9.937,9.937,0,0,0-.462,1.885,14.652,14.652,0,0,0,.034,3.394c.124.993.255,1.845.322,2.608a4.546,4.546,0,0,1-.951,3.58,5.008,5.008,0,0,1-1.505,1.234,5.582,5.582,0,0,1-2.068.542c-.816.074-1.717.069-2.68.083a14.655,14.655,0,0,0-3.034.34,8.113,8.113,0,0,0-1.5.547c-.234.124-.476.225-.7.368s-.421.3-.627.446a3.552,3.552,0,0,0-.572.483c-.172.175-.345.345-.517.512-.326.354-.593.754-.875,1.115a11.521,11.521,0,0,0-.639,1.239,6.454,6.454,0,0,0-.379,1.28c-.041.214-.087.425-.115.63s-.027.414-.039.618a9.827,9.827,0,0,0,.007,1.167c.1,1.5.37,2.753.425,3.879.009.278.037.552.023.814s-.03.51-.044.752a6.382,6.382,0,0,1-.3,1.287,4.616,4.616,0,0,1-.437.988,3.476,3.476,0,0,1-.434.685c-.269.356-.407.547-.407.547s.168-.17.483-.485a3.481,3.481,0,0,0,.542-.627,4.859,4.859,0,0,0,.6-.958,7.081,7.081,0,0,0,.522-1.328c.053-.255.108-.522.163-.8s.069-.563.106-.862c.113-1.19.032-2.53.143-3.881a6.211,6.211,0,0,1,1.429-3.716c.266-.239.5-.506.777-.731.145-.1.29-.212.437-.315a1.7,1.7,0,0,1,.451-.278l.464-.239c.156-.074.331-.108.494-.165a5.318,5.318,0,0,1,1.027-.211,12.074,12.074,0,0,1,2.367.1c.866.112,1.815.26,2.868.329a9.588,9.588,0,0,0,3.461-.4c.3-.1.593-.212.887-.324l.83-.45a4.286,4.286,0,0,0,.77-.515l.726-.568.648-.66A4.541,4.541,0,0,0,555.176-625.595Z" transform="translate(-534.369 666.283)" fill="#f99c3f"/>
            <path id="Path_829" data-name="Path 829" d="M570.121-628.231c-6.336,6.334-16.163,6.777-21.949.991s-5.343-15.614.993-21.949,16.16-6.78,21.949-.993S576.457-634.567,570.121-628.231Z" transform="translate(-521.73 654.248)" fill="#f99c3f"/>
          </g>
          <g id="Group_450" data-name="Group 450" transform="translate(51.345 55.743)">
            <path id="Path_830" data-name="Path 830" d="M577.518-608.391l.554-.8c.152-.287.3-.584.439-.885a10.692,10.692,0,0,0,.832-3.6c.073-1.105.055-2.1.076-2.942a8.6,8.6,0,0,1,.269-2.006,3.388,3.388,0,0,1,.3-.641c.064-.092.1-.188.17-.276s.15-.163.216-.244a1.011,1.011,0,0,1,.1-.129l.145-.115c.092-.081.177-.159.26-.241.182-.152.4-.255.568-.391.193-.064.351-.165.526-.209a2.743,2.743,0,0,1,.51-.094l.264-.03.319,0c.179-.016.473.032.7.034.588.055,1.3.168,2.073.264a15.34,15.34,0,0,1-2.073-1.733,15.3,15.3,0,0,1-3.47-5.352,12.268,12.268,0,0,0-1.374.614,13.207,13.207,0,0,0-1.54,1.029,17.02,17.02,0,0,0-1.28,1.262c-.184.239-.372.473-.563.712l-.271.368c-.09.129-.168.274-.248.411-.163.276-.317.561-.466.846s-.246.611-.365.917a9.739,9.739,0,0,0-.46,1.887,14.644,14.644,0,0,0,.032,3.392c.122.991.257,1.845.324,2.608a4.547,4.547,0,0,1-.954,3.58,5,5,0,0,1-1.508,1.237,5.687,5.687,0,0,1-2.066.542c-.816.071-1.717.067-2.677.083a14.8,14.8,0,0,0-3.036.336,8.3,8.3,0,0,0-1.5.552c-.234.122-.478.223-.7.363s-.418.3-.628.448a3.564,3.564,0,0,0-.572.485c-.172.17-.342.345-.517.51-.326.354-.593.751-.876,1.115a11.335,11.335,0,0,0-.639,1.239,6.814,6.814,0,0,0-.382,1.28c-.037.214-.085.425-.112.632s-.028.411-.039.616a10.4,10.4,0,0,0,.007,1.168c.1,1.5.37,2.753.427,3.879,0,.278.034.554.021.811s-.027.51-.041.754a6.368,6.368,0,0,1-.3,1.287,4.582,4.582,0,0,1-.437.99,3.11,3.11,0,0,1-.437.68l-.4.549.483-.483a3.7,3.7,0,0,0,.542-.625,5.287,5.287,0,0,0,.607-.963,7.356,7.356,0,0,0,.522-1.328c.05-.255.108-.522.163-.8s.067-.563.1-.862c.113-1.188.034-2.53.143-3.882a6.216,6.216,0,0,1,1.432-3.716c.262-.239.5-.505.777-.731.142-.106.287-.209.434-.313a1.841,1.841,0,0,1,.45-.28l.464-.239a4.732,4.732,0,0,1,.494-.163,5.347,5.347,0,0,1,1.025-.214,12.069,12.069,0,0,1,2.369.1c.869.113,1.816.262,2.87.326a9.462,9.462,0,0,0,3.456-.391c.3-.1.6-.214.889-.326l.83-.451a4.214,4.214,0,0,0,.77-.517l.726-.565.65-.66A4.681,4.681,0,0,0,577.518-608.391Z" transform="translate(-556.711 649.339)" fill="#f99c3f"/>
            <path id="Path_831" data-name="Path 831" d="M592.127-611.14c-6.336,6.336-16.163,6.78-21.952.99s-5.343-15.613.992-21.952,16.161-6.777,21.95-.99S598.463-617.476,592.127-611.14Z" transform="translate(-544.51 637.157)" fill="#f99c3f"/>
          </g>
        </g>
        <g id="Group_453" data-name="Group 453" transform="translate(442.683 -376.98)">
          <rect id="Rectangle_321" data-name="Rectangle 321" width="101.054" height="31.699" rx="3.016" transform="translate(32.127 0.134) rotate(90.243)" fill="#afafae"/>
          <g id="Group_452" data-name="Group 452" transform="translate(4.213 4.572)">
            <circle id="Ellipse_80" data-name="Ellipse 80" cx="2.621" cy="2.621" r="2.621" transform="translate(18.212 67.639)" fill="#e8e8e8"/>
            <circle id="Ellipse_81" data-name="Ellipse 81" cx="2.621" cy="2.621" r="2.621" transform="translate(18.499 0.077)" fill="#e8e8e8"/>
            <circle id="Ellipse_82" data-name="Ellipse 82" cx="2.621" cy="2.621" r="2.621" transform="translate(18.458 9.729)" fill="#e8e8e8"/>
            <circle id="Ellipse_83" data-name="Ellipse 83" cx="2.621" cy="2.621" r="2.621" transform="translate(18.417 19.38)" fill="#e8e8e8"/>
            <circle id="Ellipse_84" data-name="Ellipse 84" cx="2.621" cy="2.621" r="2.621" transform="translate(18.376 29.032)" fill="#e8e8e8"/>
            <circle id="Ellipse_85" data-name="Ellipse 85" cx="2.621" cy="2.621" r="2.621" transform="translate(18.335 38.684)" fill="#e8e8e8"/>
            <circle id="Ellipse_86" data-name="Ellipse 86" cx="2.621" cy="2.621" r="2.621" transform="translate(18.294 48.335)" fill="#e8e8e8"/>
            <circle id="Ellipse_87" data-name="Ellipse 87" cx="2.621" cy="2.621" r="2.621" transform="translate(18.253 57.987)" fill="#e8e8e8"/>
            <circle id="Ellipse_88" data-name="Ellipse 88" cx="2.621" cy="2.621" r="2.621" transform="translate(18.171 77.29)" fill="#e8e8e8"/>
            <circle id="Ellipse_89" data-name="Ellipse 89" cx="2.621" cy="2.621" r="2.621" transform="translate(0.041 67.562)" fill="#e8e8e8"/>
            <circle id="Ellipse_90" data-name="Ellipse 90" cx="2.621" cy="2.621" r="2.621" transform="translate(0.327)" fill="#e8e8e8"/>
            <circle id="Ellipse_91" data-name="Ellipse 91" cx="2.621" cy="2.621" r="2.621" transform="translate(0.287 9.652)" fill="#e8e8e8"/>
            <circle id="Ellipse_92" data-name="Ellipse 92" cx="2.621" cy="2.621" r="2.621" transform="translate(0.246 19.303)" fill="#e8e8e8"/>
            <circle id="Ellipse_93" data-name="Ellipse 93" cx="2.621" cy="2.621" r="2.621" transform="translate(0.205 28.955)" fill="#e8e8e8"/>
            <circle id="Ellipse_94" data-name="Ellipse 94" cx="2.621" cy="2.621" r="2.621" transform="translate(0.164 38.607)" fill="#e8e8e8"/>
            <circle id="Ellipse_95" data-name="Ellipse 95" cx="2.621" cy="2.621" r="2.621" transform="translate(0.123 48.258)" fill="#e8e8e8"/>
            <circle id="Ellipse_96" data-name="Ellipse 96" cx="2.621" cy="2.621" r="2.621" transform="translate(0.082 57.91)" fill="#e8e8e8"/>
            <circle id="Ellipse_97" data-name="Ellipse 97" cx="2.621" cy="2.621" r="2.621" transform="translate(0 77.213)" fill="#e8e8e8"/>
            <circle id="Ellipse_98" data-name="Ellipse 98" cx="2.621" cy="2.621" r="2.621" transform="translate(18.13 86.942)" fill="#e8e8e8"/>
            <circle id="Ellipse_99" data-name="Ellipse 99" cx="2.621" cy="2.621" r="2.621" transform="translate(9.146 86.904)" fill="#e8e8e8"/>
            <circle id="Ellipse_100" data-name="Ellipse 100" cx="2.621" cy="2.621" r="2.621" transform="translate(0.161 86.866)" fill="#e8e8e8"/>
          </g>
        </g>
        <path id="Path_832" data-name="Path 832" d="M777.723-391.9H352.729a23.639,23.639,0,0,1-23.613-23.613V-555.122a6.806,6.806,0,0,0-6.8-6.8H303.151a8.4,8.4,0,0,1-8.4-8.407,8.4,8.4,0,0,1,8.4-8.406h19.164a23.638,23.638,0,0,1,23.613,23.611v139.607a6.807,6.807,0,0,0,6.8,6.8H777.723a6.806,6.806,0,0,0,6.8-6.8v-23.328a23.643,23.643,0,0,1,23.616-23.616h130.5a6.806,6.806,0,0,0,6.8-6.8v-94.69a11.1,11.1,0,0,0-11.086-11.086H900.2a8.407,8.407,0,0,1-8.407-8.406,8.406,8.406,0,0,1,8.407-8.407h34.143a27.931,27.931,0,0,1,27.9,27.9v94.69a23.64,23.64,0,0,1-23.611,23.613h-130.5a6.807,6.807,0,0,0-6.8,6.8v23.328A23.64,23.64,0,0,1,777.723-391.9Z" transform="translate(161.593 166.057)" fill="#fba24a"/>
        <g id="Group_462" data-name="Group 462" transform="translate(480.834 -295.283)">
          <g id="Group_454" data-name="Group 454" transform="translate(0 15.579)">
            <rect id="Rectangle_322" data-name="Rectangle 322" width="113.658" height="113.658" fill="#0060af"/>
          </g>
          <g id="Group_455" data-name="Group 455" transform="translate(113.658 64.874)">
            <path id="Path_833" data-name="Path 833" d="M354.862-503.747a8.69,8.69,0,0,0,3.5-1.556,7.5,7.5,0,0,1,4.546-1.526,7.542,7.542,0,0,1,7.388,9.045,7.51,7.51,0,0,1-5.97,5.892,7.537,7.537,0,0,1-5.987-1.416,8.522,8.522,0,0,0-3.475-1.54Z" transform="translate(-354.862 506.829)" fill="#0060af"/>
          </g>
          <g id="Group_456" data-name="Group 456" transform="translate(49.295)">
            <path id="Path_834" data-name="Path 834" d="M329.937-519.479a8.648,8.648,0,0,0-1.556-3.5,7.512,7.512,0,0,1-1.526-4.548,7.542,7.542,0,0,1,9.045-7.386,7.508,7.508,0,0,1,5.892,5.968,7.539,7.539,0,0,1-1.413,5.989,8.483,8.483,0,0,0-1.542,3.475Z" transform="translate(-326.855 535.058)" fill="#0060af"/>
          </g>
          <g id="Group_461" data-name="Group 461" transform="translate(6.828 33.891)">
            <g id="Group_458" data-name="Group 458">
              <path id="Path_835" data-name="Path 835" d="M324-479.115l-8.938-2.853,7.1-9.849Z" transform="translate(-299.703 557.301)" fill="none"/>
              <path id="Path_836" data-name="Path 836" d="M332.557-506.3v-1.606a8.392,8.392,0,0,0,3.275-1.08l1.549,2.381a1.867,1.867,0,0,0,2.585.547l2.358-1.535.947,1.839h0l2.34,6.474h-8.179a6.583,6.583,0,0,0,.06-.83A6.353,6.353,0,0,0,332.557-506.3Z" transform="translate(-276.987 535.008)" fill="none"/>
              <path id="Path_837" data-name="Path 837" d="M337.6-505.841a8.469,8.469,0,0,0,.611-3.162v-5.621l2.5,3.831,3.716,5.711a1.869,1.869,0,0,1-.547,2.585l-3.406,2.215-2.358,1.535a1.867,1.867,0,0,1-2.585-.547l-1.549-2.381A8.488,8.488,0,0,0,337.6-505.841Z" transform="translate(-275.137 527.693)" fill="#0b3d8c"/>
              <path id="Path_838" data-name="Path 838" d="M354.305-508.977a1.854,1.854,0,0,0-1.358-.83l-7.234-5.373-10.532,7.221a4.675,4.675,0,0,0-4.674,4.674,4.675,4.675,0,0,0,4.674,4.674V-487.5a3.211,3.211,0,0,0-1.5-.37,3.282,3.282,0,0,0-3.282,3.282v0h-8.845c-.26,0-.517,0-.777.016a6.4,6.4,0,0,1-.062-.846,6.351,6.351,0,0,1,4.555-6.09v-15.618a13.189,13.189,0,0,1,13.189-13.187h4.619a12.351,12.351,0,0,1,12.352,12.353l-.9-.669Z" transform="translate(-292.355 520.311)" fill="#141e3e"/>
              <path id="Path_839" data-name="Path 839" d="M336.2-499.9a3.282,3.282,0,0,0-3.282-3.282,3.211,3.211,0,0,0-1.5.37v-5.656h1.662a8.717,8.717,0,0,0,.956-.055v1.606a6.353,6.353,0,0,1,4.934,6.189,6.585,6.585,0,0,1-.06.83H336.2Z" transform="translate(-278.465 535.618)" fill="#141e3e"/>
              <path id="Path_840" data-name="Path 840" d="M336.1-514.91l.227.349-1.586-1.179A1.854,1.854,0,0,1,336.1-514.91Z" transform="translate(-274.15 526.245)" fill="#141e3e"/>
              <g id="Group_457" data-name="Group 457" transform="translate(38.151 5.132)">
                <path id="Path_841" data-name="Path 841" d="M340.76-506.874l-3.716-5.711.972-.66,5.952,3.176-.244,7.623-5.97,2.211h0l-.947-1.839,3.406-2.215A1.869,1.869,0,0,0,340.76-506.874Z" transform="translate(-309.62 524.353)" fill="#f08d84"/>
                <path id="Path_842" data-name="Path 842" d="M329.651-510.857l10.532-7.221,7.234,5.373L349-511.526l.9.669h0v6.338a8.47,8.47,0,0,1-.611,3.162,8.489,8.489,0,0,1-3.622,4.167,8.393,8.393,0,0,1-3.275,1.08,8.715,8.715,0,0,1-.956.055h-1.661v5.656a3.354,3.354,0,0,0-.692.48,3.251,3.251,0,0,0-2.186-.85,3.252,3.252,0,0,0-2.186.85,3.261,3.261,0,0,0-2.188-.85,3.251,3.251,0,0,0-2.186.85,3.357,3.357,0,0,0-.692-.48v-11.109a4.675,4.675,0,0,1-4.674-4.674A4.675,4.675,0,0,1,329.651-510.857Z" transform="translate(-324.977 518.078)" fill="#f08d84"/>
              </g>
              <path id="Path_843" data-name="Path 843" d="M328.214-506.2a3.211,3.211,0,0,1,1.5.37,3.358,3.358,0,0,1,.692.48,3.251,3.251,0,0,1,2.186-.85,3.261,3.261,0,0,1,2.188.85,3.251,3.251,0,0,1,2.186-.85,3.251,3.251,0,0,1,2.186.85,3.354,3.354,0,0,1,.692-.48,3.211,3.211,0,0,1,1.5-.37,3.282,3.282,0,0,1,3.282,3.282v0H324.932v0A3.282,3.282,0,0,1,328.214-506.2Z" transform="translate(-286.885 538.635)" fill="#ffebde"/>
              <path id="Path_844" data-name="Path 844" d="M315.72-450.644l18.548,2.726,1.3,7.68h41.4l5.168-30.623,9.36,3.762a8.446,8.446,0,0,0,6.311.386,8.55,8.55,0,0,0,5.676-8.179v-.055a8.723,8.723,0,0,0-1.726-5.21l-21.124-28.389-5.97,2.211L377-499.86H337.578c-.26,0-.517,0-.777.016a18.6,18.6,0,0,0-16.216,11.013l-11.419,25.62A9.047,9.047,0,0,0,315.72-450.644Zm8.011-9.608,7.1-9.848,1.841,12.7Z" transform="translate(-308.376 535.585)" fill="#ea829f"/>
            </g>
            <g id="Group_459" data-name="Group 459" transform="translate(38.872 62.636)">
              <rect id="Rectangle_323" data-name="Rectangle 323" width="18.254" height="24.013" transform="translate(18.254 24.013) rotate(-180)" fill="#f1c831"/>
            </g>
            <g id="Group_460" data-name="Group 460" transform="translate(33.442 80.491)">
              <path id="Path_845" data-name="Path 845" d="M325.018-483.492l6.207-1.794,4.709,4.485-2.242,6.558-10.764-2.746Z" transform="translate(-322.928 485.286)" fill="#f08d84"/>
            </g>
          </g>
        </g>
        <g id="Group_475" data-name="Group 475" transform="translate(499.186 -553.804)">
          <g id="Group_463" data-name="Group 463" transform="translate(263.995 67.46)">
            <path id="Path_846" data-name="Path 846" d="M536.273-601.19H496.963a9.475,9.475,0,0,1,1.7-3.817,8.2,8.2,0,0,0,1.666-4.964,8.234,8.234,0,0,0-9.875-8.064,8.2,8.2,0,0,0-6.432,6.515,8.229,8.229,0,0,0,1.544,6.538,9.256,9.256,0,0,1,1.682,3.792H445.271v37.662a9.5,9.5,0,0,1-3.819-1.7,8.183,8.183,0,0,0-4.962-1.666,8.231,8.231,0,0,0-8.064,9.875,8.2,8.2,0,0,0,6.515,6.432,8.239,8.239,0,0,0,6.538-1.544,9.255,9.255,0,0,1,3.792-1.682v38.252h41.971a9.47,9.47,0,0,1-1.7,3.82,8.183,8.183,0,0,0-1.666,4.962,8.234,8.234,0,0,0,9.875,8.064,8.194,8.194,0,0,0,6.433-6.515,8.23,8.23,0,0,0-1.544-6.538,9.288,9.288,0,0,1-1.682-3.792h23.119A109.831,109.831,0,0,0,536.273-601.19Z" transform="translate(-428.265 618.196)" fill="#5094d1"/>
          </g>
          <g id="Group_464" data-name="Group 464" transform="translate(93.663 67.46)">
            <path id="Path_847" data-name="Path 847" d="M444.024-552.13a8.239,8.239,0,0,1-6.538,1.544,8.2,8.2,0,0,1-6.515-6.432,8.231,8.231,0,0,1,8.064-9.875A8.183,8.183,0,0,1,444-565.227a9.5,9.5,0,0,0,3.82,1.7V-601.19H405.841a9.506,9.506,0,0,1,1.7-3.817,8.183,8.183,0,0,0,1.668-4.964,8.235,8.235,0,0,0-9.877-8.064,8.2,8.2,0,0,0-6.432,6.515,8.239,8.239,0,0,0,1.547,6.538,9.317,9.317,0,0,1,1.682,3.792h-41.98v38.255a9.313,9.313,0,0,0,3.794-1.682,8.232,8.232,0,0,1,6.536-1.547,8.2,8.2,0,0,1,6.517,6.432,8.233,8.233,0,0,1-8.064,9.875,8.184,8.184,0,0,1-4.964-1.666,9.5,9.5,0,0,0-3.819-1.7v37.662h41.98a9.327,9.327,0,0,0-1.682-3.794,8.232,8.232,0,0,1-1.547-6.536,8.2,8.2,0,0,1,6.432-6.515,8.233,8.233,0,0,1,9.877,8.064,8.17,8.17,0,0,1-1.668,4.962,9.5,9.5,0,0,0-1.7,3.819h41.975v-38.252A9.255,9.255,0,0,0,444.024-552.13Z" transform="translate(-354.147 618.196)" fill="#5094d1"/>
          </g>
          <g id="Group_465" data-name="Group 465" transform="translate(2.664)">
            <path id="Path_848" data-name="Path 848" d="M401.757-598.779a8.239,8.239,0,0,1-6.538,1.547,8.2,8.2,0,0,1-6.515-6.435,8.234,8.234,0,0,1,8.064-9.875,8.182,8.182,0,0,1,4.962,1.666,9.469,9.469,0,0,0,3.82,1.7V-647.55a109.228,109.228,0,0,0-61.525,30.963h0a109.21,109.21,0,0,0-29.473,53.5h39.307a9.441,9.441,0,0,1-1.7,3.82,8.184,8.184,0,0,0-1.666,4.964,8.234,8.234,0,0,0,9.875,8.064,8.2,8.2,0,0,0,6.432-6.517,8.223,8.223,0,0,0-1.544-6.536,9.281,9.281,0,0,1-1.682-3.794h41.975v-37.377A9.286,9.286,0,0,0,401.757-598.779Z" transform="translate(-314.55 647.55)" fill="#5094d1"/>
          </g>
          <g id="Group_466" data-name="Group 466" transform="translate(170.326 153.089)">
            <path id="Path_849" data-name="Path 849" d="M457.9-567.748a8.183,8.183,0,0,0,1.666-4.962,8.231,8.231,0,0,0-9.875-8.064,8.2,8.2,0,0,0-6.432,6.515,8.231,8.231,0,0,0,1.547,6.536,9.327,9.327,0,0,1,1.682,3.794h-41.98v37.953a9.441,9.441,0,0,1-3.82-1.7,8.182,8.182,0,0,0-4.962-1.666,8.232,8.232,0,0,0-8.064,9.875,8.2,8.2,0,0,0,6.515,6.433,8.231,8.231,0,0,0,6.538-1.544,9.257,9.257,0,0,1,3.792-1.682V-478.3h41.975a9.5,9.5,0,0,1-1.7,3.82,8.183,8.183,0,0,0-1.666,4.964A8.233,8.233,0,0,0,453-461.453a8.2,8.2,0,0,0,6.433-6.518,8.24,8.24,0,0,0-1.544-6.536A9.251,9.251,0,0,1,456.2-478.3h33.939l8.039-8.039v-29.919a9.257,9.257,0,0,0-3.792,1.682,8.231,8.231,0,0,1-6.538,1.544,8.2,8.2,0,0,1-6.515-6.433,8.232,8.232,0,0,1,8.064-9.875,8.182,8.182,0,0,1,4.962,1.666,9.441,9.441,0,0,0,3.819,1.7v-37.953H456.206A9.5,9.5,0,0,1,457.9-567.748Z" transform="translate(-387.506 580.935)" fill="#fff"/>
          </g>
          <g id="Group_467" data-name="Group 467" transform="translate(101.704 238.718)">
            <path id="Path_850" data-name="Path 850" d="M403-530.489a8.17,8.17,0,0,0,1.668-4.962,8.235,8.235,0,0,0-9.877-8.064A8.2,8.2,0,0,0,388.356-537a8.24,8.24,0,0,0,1.547,6.538,9.317,9.317,0,0,1,1.682,3.792H357.646l85.628,85.63v-37.956a9.5,9.5,0,0,1,3.819,1.7,8.182,8.182,0,0,0,4.962,1.666,8.231,8.231,0,0,0,8.064-9.875,8.2,8.2,0,0,0-6.515-6.432,8.24,8.24,0,0,0-6.536,1.544,9.28,9.28,0,0,1-3.794,1.682v-37.958H401.3A9.532,9.532,0,0,1,403-530.489Z" transform="translate(-357.646 543.675)" fill="#5094d1"/>
          </g>
          <g id="Group_468" data-name="Group 468" transform="translate(18.856 153.089)">
            <path id="Path_851" data-name="Path 851" d="M356.13-567.748a8.183,8.183,0,0,0,1.666-4.962,8.232,8.232,0,0,0-9.875-8.064,8.2,8.2,0,0,0-6.432,6.515,8.222,8.222,0,0,0,1.544,6.536,9.266,9.266,0,0,1,1.682,3.794H321.6a110.335,110.335,0,0,0,13.281,16.061h0L396.4-486.339v-29.919a9.256,9.256,0,0,0-3.792,1.682,8.231,8.231,0,0,1-6.538,1.544,8.2,8.2,0,0,1-6.515-6.433,8.234,8.234,0,0,1,8.064-9.875,8.182,8.182,0,0,1,4.962,1.666,9.469,9.469,0,0,0,3.82,1.7v-37.953H354.432A9.473,9.473,0,0,1,356.13-567.748Z" transform="translate(-321.596 580.935)" fill="#5094d1"/>
          </g>
          <g id="Group_469" data-name="Group 469" transform="translate(281.001)">
            <path id="Path_852" data-name="Path 852" d="M475.958-566.877a8.229,8.229,0,0,1-1.544-6.538,8.2,8.2,0,0,1,6.432-6.515,8.234,8.234,0,0,1,9.875,8.064,8.2,8.2,0,0,1-1.666,4.964,9.476,9.476,0,0,0-1.7,3.817h39.309a109.226,109.226,0,0,0-29.474-53.5h0a109.24,109.24,0,0,0-61.528-30.963v36.788a9.256,9.256,0,0,0,3.792-1.682A8.239,8.239,0,0,1,446-613.988a8.2,8.2,0,0,1,6.515,6.432,8.232,8.232,0,0,1-8.064,9.875,8.183,8.183,0,0,1-4.962-1.666,9.472,9.472,0,0,0-3.819-1.7v37.96H477.64A9.255,9.255,0,0,0,475.958-566.877Z" transform="translate(-435.665 647.55)" fill="#0078c0"/>
          </g>
          <g id="Group_470" data-name="Group 470" transform="translate(170.326 84.465)">
            <path id="Path_853" data-name="Path 853" d="M494.39-561.735a8.239,8.239,0,0,1-6.538,1.544,8.2,8.2,0,0,1-6.515-6.432A8.231,8.231,0,0,1,489.4-576.5a8.184,8.184,0,0,1,4.962,1.666,9.5,9.5,0,0,0,3.819,1.7V-610.8H456.2A9.249,9.249,0,0,0,457.886-607a8.24,8.24,0,0,1,1.544,6.536A8.2,8.2,0,0,1,453-593.948a8.233,8.233,0,0,1-9.875-8.064,8.183,8.183,0,0,1,1.666-4.964,9.506,9.506,0,0,0,1.7-3.82H404.512v37.662a9.5,9.5,0,0,1-3.82-1.7,8.184,8.184,0,0,0-4.962-1.666,8.231,8.231,0,0,0-8.064,9.875,8.2,8.2,0,0,0,6.515,6.432,8.239,8.239,0,0,0,6.538-1.544,9.252,9.252,0,0,1,3.792-1.682v38.252h41.98a9.327,9.327,0,0,0-1.682-3.794,8.231,8.231,0,0,1-1.547-6.536,8.2,8.2,0,0,1,6.432-6.515,8.231,8.231,0,0,1,9.875,8.064,8.183,8.183,0,0,1-1.666,4.962,9.5,9.5,0,0,0-1.7,3.82h41.975v-38.252A9.252,9.252,0,0,0,494.39-561.735Z" transform="translate(-387.506 610.796)" fill="#0078c0"/>
          </g>
          <g id="Group_471" data-name="Group 471" transform="translate(263.995 170.096)">
            <path id="Path_854" data-name="Path 854" d="M498.641-569.743a8.23,8.23,0,0,1,1.544,6.538,8.194,8.194,0,0,1-6.433,6.515,8.234,8.234,0,0,1-9.875-8.064,8.183,8.183,0,0,1,1.666-4.962,9.47,9.47,0,0,0,1.7-3.82H445.271v37.954a9.442,9.442,0,0,1-3.819-1.7,8.182,8.182,0,0,0-4.962-1.666,8.232,8.232,0,0,0-8.064,9.875,8.2,8.2,0,0,0,6.515,6.432,8.23,8.23,0,0,0,6.538-1.544,9.256,9.256,0,0,1,3.792-1.682v29.919L506.8-557.473a110.477,110.477,0,0,0,13.279-16.062H496.958A9.288,9.288,0,0,0,498.641-569.743Z" transform="translate(-428.265 573.535)" fill="#0078c0"/>
          </g>
          <g id="Group_472" data-name="Group 472" transform="translate(187.332 255.724)">
            <path id="Path_855" data-name="Path 855" d="M398.7-500a8.24,8.24,0,0,1,6.536-1.544,8.2,8.2,0,0,1,6.515,6.432,8.231,8.231,0,0,1-8.064,9.875,8.183,8.183,0,0,1-4.962-1.666,9.5,9.5,0,0,0-3.819-1.7v37.956l85.63-85.63H446.6a9.253,9.253,0,0,0,1.682,3.794,8.24,8.24,0,0,1,1.544,6.536,8.2,8.2,0,0,1-6.432,6.518,8.233,8.233,0,0,1-9.875-8.064,8.184,8.184,0,0,1,1.666-4.964,9.506,9.506,0,0,0,1.7-3.82H394.906v37.958A9.278,9.278,0,0,0,398.7-500Z" transform="translate(-394.906 536.275)" fill="#0078c0"/>
          </g>
          <g id="Group_473" data-name="Group 473" transform="translate(76.657 153.089)">
            <path id="Path_856" data-name="Path 856" d="M417.145-567.748a8.17,8.17,0,0,0,1.668-4.962,8.233,8.233,0,0,0-9.877-8.064,8.2,8.2,0,0,0-6.433,6.515,8.232,8.232,0,0,0,1.547,6.536,9.326,9.326,0,0,1,1.682,3.794h-41.98v37.953a9.469,9.469,0,0,1-3.82-1.7,8.182,8.182,0,0,0-4.962-1.666,8.234,8.234,0,0,0-8.064,9.875,8.2,8.2,0,0,0,6.515,6.433,8.231,8.231,0,0,0,6.538-1.544,9.256,9.256,0,0,1,3.792-1.682v29.919l8.041,8.039h33.939a9.315,9.315,0,0,0-1.682-3.792,8.24,8.24,0,0,1-1.547-6.538,8.2,8.2,0,0,1,6.433-6.515,8.235,8.235,0,0,1,9.877,8.064,8.17,8.17,0,0,1-1.668,4.962,9.532,9.532,0,0,0-1.7,3.819h41.975v-37.958a9.257,9.257,0,0,0-3.792,1.682,8.231,8.231,0,0,1-6.538,1.544,8.2,8.2,0,0,1-6.515-6.433,8.232,8.232,0,0,1,8.064-9.875,8.182,8.182,0,0,1,4.962,1.666,9.441,9.441,0,0,0,3.82,1.7v-37.953H415.447A9.5,9.5,0,0,1,417.145-567.748Z" transform="translate(-346.747 580.935)" fill="#0060af"/>
          </g>
          <g id="Group_474" data-name="Group 474" transform="translate(0 84.465)">
            <path id="Path_857" data-name="Path 857" d="M410.873-561.129a8.184,8.184,0,0,0,4.964,1.666,8.233,8.233,0,0,0,8.064-9.875,8.2,8.2,0,0,0-6.517-6.432,8.232,8.232,0,0,0-6.536,1.547,9.312,9.312,0,0,1-3.794,1.682V-610.8H365.078A9.28,9.28,0,0,0,366.76-607a8.223,8.223,0,0,1,1.544,6.536,8.2,8.2,0,0,1-6.432,6.517A8.234,8.234,0,0,1,352-602.013a8.183,8.183,0,0,1,1.666-4.964,9.442,9.442,0,0,0,1.7-3.82H316.055a109.821,109.821,0,0,0,16.193,85.631h23.119a9.267,9.267,0,0,0-1.682-3.794,8.222,8.222,0,0,1-1.544-6.536,8.2,8.2,0,0,1,6.432-6.515,8.232,8.232,0,0,1,9.875,8.064,8.183,8.183,0,0,1-1.666,4.962,9.473,9.473,0,0,0-1.7,3.82h41.971v-37.662A9.5,9.5,0,0,1,410.873-561.129Z" transform="translate(-313.391 610.796)" fill="#fff"/>
          </g>
        </g>
        <g id="Group_476" data-name="Group 476" transform="translate(715.318 -382.085)">
          <path id="Path_858" data-name="Path 858" d="M499.673-548.216a8.189,8.189,0,0,0,4.013-3.362,8.234,8.234,0,0,0-4.215-12.033,8.193,8.193,0,0,0-8.887,2.2,8.239,8.239,0,0,0-2.1,6.382,9.285,9.285,0,0,1-.545,4.114l-35.8-21.913-19.812,32.371a9.453,9.453,0,0,1-2.372-3.443,8.174,8.174,0,0,0-3.362-4.01,8.234,8.234,0,0,0-12.035,4.213,8.2,8.2,0,0,0,2.2,8.889,8.243,8.243,0,0,0,6.382,2.094,9.291,9.291,0,0,1,4.114.544l-19.817,32.376,35.8,21.913a9.493,9.493,0,0,1-3.443,2.369,8.2,8.2,0,0,0-4.012,3.364A8.234,8.234,0,0,0,440-460.115a8.2,8.2,0,0,0,8.887-2.2,8.242,8.242,0,0,0,2.1-6.384,9.243,9.243,0,0,1,.545-4.111l35.853,21.789,44.653-72.913-35.8-21.91A9.506,9.506,0,0,1,499.673-548.216Z" transform="translate(-407.438 572.829)" fill="#0060af"/>
        </g>
        <g id="Group_477" data-name="Group 477" transform="translate(575.843 -586.382)">
          <path id="Path_859" data-name="Path 859" d="M405.027-631.062a6.649,6.649,0,0,1-8.818-2.188l-5-7.708-1.324,6.658a110.579,110.579,0,0,1,11.534,10.031h0a109.829,109.829,0,0,1,22.568-17.364l-.046.016Z" transform="translate(-290.746 687.809)" fill="none"/>
          <path id="Path_860" data-name="Path 860" d="M396-661.726h-3.04a8.684,8.684,0,0,0-8.682,8.682c0,.037.007.074.007.11a10.08,10.08,0,0,0-8.673,9.976,10.032,10.032,0,0,0,1.19,4.75h14v-9.232a3.078,3.078,0,0,1-3.061-3.378,2.942,2.942,0,0,1,.864-1.8,3.3,3.3,0,0,1,2.33-.979h1.586a6.129,6.129,0,0,0,5.208-2.9l.65-1.048.267.54a6.127,6.127,0,0,0,5.49,3.406A8.133,8.133,0,0,0,396-661.726Z" transform="translate(-309.282 661.726)" fill="#923c2b"/>
          <path id="Path_861" data-name="Path 861" d="M391.8-659.364l-.267-.54-.65,1.048a6.129,6.129,0,0,1-5.208,2.9h-1.586a3.3,3.3,0,0,0-2.33.979,2.942,2.942,0,0,0-.864,1.8,3.078,3.078,0,0,0,3.061,3.378v9.232h6.667v-5.642h1.1a5.572,5.572,0,0,0,5.571-5.573v-4.171A6.127,6.127,0,0,1,391.8-659.364Z" transform="translate(-302.44 664.091)" fill="#f08d84"/>
          <path id="Path_862" data-name="Path 862" d="M448.641-613.468A8.183,8.183,0,0,1,453.6-611.8a9.476,9.476,0,0,0,3.82,1.7v-5.823h0a110.569,110.569,0,0,0-11.534-10.031,108.912,108.912,0,0,0-31.5-16.54l-.368.014-18.066.706,2.25,17.806,2.486,3.486-1.243,3.805-5.334,1.227-1.749-6.862-5.189-19.849a6.192,6.192,0,0,1,1.255-5.561,110.272,110.272,0,0,0-24.675.836v37.372a9.47,9.47,0,0,1-3.82-1.7,8.182,8.182,0,0,0-4.962-1.666A8.234,8.234,0,0,0,346.908-603a8.2,8.2,0,0,0,6.515,6.435,8.24,8.24,0,0,0,6.538-1.547,9.284,9.284,0,0,1,3.792-1.682v37.377h41.98a9.315,9.315,0,0,0-1.682-3.792,8.24,8.24,0,0,1-1.547-6.538,8.2,8.2,0,0,1,6.433-6.515,8.235,8.235,0,0,1,9.877,8.064,8.182,8.182,0,0,1-1.668,4.964,9.506,9.506,0,0,0-1.7,3.817h41.975v-37.965a9.317,9.317,0,0,0-3.792,1.682,8.23,8.23,0,0,1-6.538,1.544,8.194,8.194,0,0,1-6.515-6.432A8.232,8.232,0,0,1,448.641-613.468Z" transform="translate(-346.747 679.465)" fill="#0060af"/>
          <path id="Path_863" data-name="Path 863" d="M455.7-633.456l-20.065,5.338-3.431-12.318a15.109,15.109,0,0,0-14.556-11.056H391.543a18.98,18.98,0,0,0-5.7.876L368.626-645.2a6.159,6.159,0,0,0-2.919,1.935,6.193,6.193,0,0,0-1.255,5.561l5.189,19.849,5.84-1.657-2.25-17.806,18.066-.706.368-.014a108.911,108.911,0,0,1,31.5,16.539l1.324-6.657,5,7.708a6.649,6.649,0,0,0,8.818,2.188l18.916-10.555Z" transform="translate(-324.027 675.011)" fill="#f1c831"/>
          <path id="Path_864" data-name="Path 864" d="M405.611-636.735q3.82-2.216,7.774-4.1l-1.427-4.569h-6.393l-1.521,4.049,1.521,4.638Z" transform="translate(-272.369 682.911)" fill="#f08d84"/>
          <path id="Path_865" data-name="Path 865" d="M515.027-606.892a8.2,8.2,0,0,0-6.515-6.433,8.229,8.229,0,0,0-6.538,1.544,9.257,9.257,0,0,1-3.792,1.682v-36.788a110,110,0,0,0-63.327,9.5q-3.95,1.886-7.775,4.1a109.836,109.836,0,0,0-22.568,17.365h0v5.823a9.473,9.473,0,0,1-3.82-1.7,8.183,8.183,0,0,0-4.962-1.666,8.232,8.232,0,0,0-8.064,9.875,8.194,8.194,0,0,0,6.515,6.433,8.231,8.231,0,0,0,6.538-1.544,9.315,9.315,0,0,1,3.792-1.682v37.965h41.975a9.5,9.5,0,0,1-1.7,3.82,8.184,8.184,0,0,0-1.666,4.964A8.233,8.233,0,0,0,453-545.573a8.2,8.2,0,0,0,6.433-6.518,8.24,8.24,0,0,0-1.544-6.536,9.25,9.25,0,0,1-1.682-3.794h41.978v-37.96a9.473,9.473,0,0,1,3.819,1.7,8.182,8.182,0,0,0,4.962,1.666A8.232,8.232,0,0,0,515.027-606.892Z" transform="translate(-293.837 679.464)" fill="#5094d1"/>
          <path id="Path_866" data-name="Path 866" d="M368.346-629.059l5.333-1.227,1.244-3.8-2.488-3.487-5.839,1.659Z" transform="translate(-320.981 693.073)" fill="#f08d84"/>
        </g>
        <g id="Group_483" data-name="Group 483" transform="translate(772.967 -305.593)">
          <g id="Group_479" data-name="Group 479" transform="translate(37.936)">
            <path id="Path_867" data-name="Path 867" d="M452.754-534.468l1.494-.332-1.494.332Z" transform="translate(-444.197 545.703)" fill="none"/>
            <path id="Path_868" data-name="Path 868" d="M497.571-508.9c-7.372-3.622-10.422-9.792-14.857-19.394l-.007.009a9.915,9.915,0,0,0-7.88-5.559l-3.459-.37a9.308,9.308,0,0,0-10.245,8.264l11.58-4.233,3.592,5.856a3.521,3.521,0,0,1,3.128,3.875,3.521,3.521,0,0,1-3.877,3.128l-.981,9.188,7.763,1.032c.067.007.131.016.2.025l.188.025,0,.009a10.249,10.249,0,0,1,8.257,13.065l-1.144,3.815C501.848-487.725,507.966-503.8,497.571-508.9Z" transform="translate(-433.332 546.388)" fill="#141e3e"/>
            <g id="Group_478" data-name="Group 478">
              <path id="Path_869" data-name="Path 869" d="M476.6-526.639l-3.592-5.856-11.58,4.233-.506,4.746a6.376,6.376,0,0,0,5.663,7.019l1.243.133-.524,4.911,4.475.595,3.091.409.981-9.188a3.521,3.521,0,0,0,3.877-3.128A3.521,3.521,0,0,0,476.6-526.639Z" transform="translate(-433.639 548.695)" fill="#f08d84"/>
              <path id="Path_870" data-name="Path 870" d="M453.844-532.917l-4.814,6.133,1.714,3.583,3.067-.682,2.385-.53V-528l1.392-.309,1.494-.332,2.886-.641,1.5-5.345-4.276-4.917Z" transform="translate(-449.03 539.544)" fill="#f08d84"/>
            </g>
            <path id="Path_871" data-name="Path 871" d="M497.441-506l0-.009-.188-.025c-.067-.009-.131-.018-.2-.025l-7.763-1.032L486.2-507.5l-4.475-.6-15.25-2.022L461-535.079l-2.886.641-1.494.333-1.393.308v3.587l-2.385.531-3.066.68v26.929a7.854,7.854,0,0,0,5.784,7.575L464.682-492l6.382,24.025h31.188l2.3-21.147,1.144-3.815A10.249,10.249,0,0,0,497.441-506Z" transform="translate(-448.062 545.341)" fill="#fff"/>
          </g>
          <g id="Group_480" data-name="Group 480" transform="translate(12.621 82.903)">
            <path id="Path_872" data-name="Path 872" d="M438.015-456.335l10.44-39.429a10.353,10.353,0,0,1,10.011-7.706h8.595v15.788h-6.223L450.5-456.335Z" transform="translate(-438.015 503.47)" fill="#0060af"/>
          </g>
          <g id="Group_481" data-name="Group 481" transform="translate(43.032 69.723)">
            <path id="Path_873" data-name="Path 873" d="M503.167-480.238H451.248v-21.241h29.861l22.058-7.726Z" transform="translate(-451.248 509.205)" fill="#49a4de"/>
          </g>
          <g id="Group_482" data-name="Group 482" transform="translate(0 130.038)">
            <path id="Path_874" data-name="Path 874" d="M445.144-482.96l-11.555,5.41a1.851,1.851,0,0,0-1.066,1.678h0a1.851,1.851,0,0,0,1.85,1.852h23.253v-8.94Z" transform="translate(-432.523 482.96)" fill="#ee898f"/>
          </g>
          <path id="Path_875" data-name="Path 875" d="M527.768-493.075l0-.025v-22.175a5.415,5.415,0,0,1,5.408-5.41h13.334a1.361,1.361,0,0,0,1.363-1.363,1.363,1.363,0,0,0-1.363-1.363H533.178a8.144,8.144,0,0,0-8.135,8.135v20.812h-42.57a9.36,9.36,0,0,0-9.349,9.349v21.952H465.88a10.7,10.7,0,0,0-10.686,10.686v30.965H434.708a1.361,1.361,0,0,0-1.363,1.363,1.363,1.363,0,0,0,1.363,1.363h21.851a1.364,1.364,0,0,0,1.363-1.363v-17.064h15.2v8.333c0,.032.009.064.012.1a9.614,9.614,0,0,0-8.262,9.517,9.615,9.615,0,0,0,9.615,9.615,9.614,9.614,0,0,0,9.613-9.615,9.614,9.614,0,0,0-8.259-9.517c0-.032.009-.064.009-.1v-31.556h9.822a41.868,41.868,0,0,0-.991,9.059,41.726,41.726,0,0,0,41.725,41.725,41.724,41.724,0,0,0,41.722-41.725A41.722,41.722,0,0,0,527.768-493.075Zm32.617,40.337H529.7l21.7-21.7A33.878,33.878,0,0,1,560.385-452.738ZM527.77-485.353a33.892,33.892,0,0,1,21.7,8.986l-21.7,21.7ZM457.921-439.94v-12.536a7.967,7.967,0,0,1,7.958-7.958h7.244v20.495Zm17.93-23.223v-21.952a6.63,6.63,0,0,1,6.621-6.621h33.323a41.8,41.8,0,0,0-29.421,28.573Zm25.564-11.277,21.7,21.7H492.43A33.876,33.876,0,0,1,501.416-474.439Zm-8.986,24.427h30.687l-21.7,21.7A33.868,33.868,0,0,1,492.43-450.013ZM525.043-417.4a33.882,33.882,0,0,1-21.7-8.986l21.7-21.7Zm0-37.269-21.7-21.7a33.882,33.882,0,0,1,21.7-8.986ZM527.77-417.4v-30.687l21.7,21.7A33.893,33.893,0,0,1,527.77-417.4ZM551.4-428.311l-21.7-21.7h30.687A33.882,33.882,0,0,1,551.4-428.311Z" transform="translate(-431.456 560.489)" fill="#3a3145"/>
        </g>
        <g id="Group_491" data-name="Group 491" transform="translate(890.121 -598.976)">
          <g id="Group_484" data-name="Group 484" transform="translate(0 64.874)">
            <path id="Path_876" data-name="Path 876" d="M499.08-635.9a8.684,8.684,0,0,1-3.5-1.553,7.488,7.488,0,0,0-4.546-1.528,7.542,7.542,0,0,0-7.386,9.048,7.513,7.513,0,0,0,5.968,5.892,7.549,7.549,0,0,0,5.989-1.416,8.481,8.481,0,0,1,3.475-1.542Z" transform="translate(-483.501 638.977)" fill="#0060af"/>
          </g>
          <g id="Group_485" data-name="Group 485" transform="translate(64.873)">
            <path id="Path_877" data-name="Path 877" d="M523.715-651.627a8.719,8.719,0,0,1,1.556-3.5,7.5,7.5,0,0,0,1.528-4.546,7.544,7.544,0,0,0-9.048-7.388,7.513,7.513,0,0,0-5.892,5.971,7.534,7.534,0,0,0,1.415,5.986,8.529,8.529,0,0,1,1.542,3.475Z" transform="translate(-511.73 667.206)" fill="#0060af"/>
          </g>
          <g id="Group_490" data-name="Group 490" transform="translate(15.578 15.58)">
            <g id="Group_486" data-name="Group 486">
              <rect id="Rectangle_324" data-name="Rectangle 324" width="113.658" height="113.658" fill="#0060af"/>
            </g>
            <g id="Group_489" data-name="Group 489" transform="translate(18.618 23.155)">
              <g id="Group_488" data-name="Group 488">
                <path id="Path_878" data-name="Path 878" d="M520.4-636.49h0l-4.525,4.43,4.525-4.43h0l4.487,4.469L520.4-636.49Z" transform="translate(-475.672 668.344)" fill="none"/>
                <path id="Path_879" data-name="Path 879" d="M586.082-602.035,579.264-623.2a18.72,18.72,0,0,0-17.794-13.164l-10.263-.046-3.61,4.435-4.486-4.47h0l-4.525,4.431-3.571-4.467-9.266-.039A18.722,18.722,0,0,0,507.491-622.3l-9.11,36.818,16.588,1.535.446,5.964,54.877.239.917-11.7,5.541.023A9.729,9.729,0,0,0,586.082-602.035Z" transform="translate(-498.381 668.301)" fill="#e97da4"/>
                <path id="Path_880" data-name="Path 880" d="M526.552-639.292l3.468.016a4.16,4.16,0,0,1,4.141,4.178,4.161,4.161,0,0,1-4.178,4.141l-.016,3.778a11.731,11.731,0,0,0,8.866-11.316h0a11.739,11.739,0,0,0-11.686-11.789l-15.106-.067-.034,7.529,14.561.064Z" transform="translate(-480.693 650.351)" fill="#161615"/>
                <path id="Path_881" data-name="Path 881" d="M517.844-636.49h0Z" transform="translate(-473.116 668.344)" fill="#f08d84"/>
                <path id="Path_882" data-name="Path 882" d="M530.042-643.529l-3.468-.016.016-3.466-14.561-.064-.039,9.105a7.534,7.534,0,0,0,7.5,7.568l1.48.007-.018,4.038h0l4.49,3.608,4.523-3.569.016-4.038.007-1.076.016-3.778a4.161,4.161,0,0,0,4.178-4.141A4.16,4.16,0,0,0,530.042-643.529Z" transform="translate(-480.715 654.604)" fill="#864a21"/>
                <g id="Group_487" data-name="Group 487" transform="translate(36.631 28.247)">
                  <path id="Path_883" data-name="Path 883" d="M517.927-638.06l-3.606,3.571h0l3.571,4.465,4.525-4.43h0l-4.491-3.607Z" transform="translate(-514.321 638.06)" fill="#eae6db"/>
                  <path id="Path_884" data-name="Path 884" d="M522.366-638.043l-4.522,3.568h0l4.487,4.469,3.609-4.434h0Z" transform="translate(-509.747 638.082)" fill="#eae6db"/>
                </g>
              </g>
            </g>
          </g>
        </g>
        <g id="Group_520" data-name="Group 520" transform="translate(875.53 -440.223)">
          <g id="Group_492" data-name="Group 492" transform="translate(0)">
            <path id="Path_885" data-name="Path 885" d="M540.643-550.894a16.47,16.47,0,0,1,1.365,1.126l21.062-29.361c-.494-.322-.968-.669-1.434-1.027Z" transform="translate(-394.733 621.456)" fill="#fff"/>
            <path id="Path_886" data-name="Path 886" d="M511.482-576.082c-.276.522-.586,1.02-.887,1.526l44.926,25.282a15.98,15.98,0,0,1,.841-1.549Z" transform="translate(-433.739 626.744)" fill="#fff"/>
            <path id="Path_887" data-name="Path 887" d="M517.184-598.045A34.386,34.386,0,0,0,482.8-563.658a34.371,34.371,0,0,0,22.816,32.351l-9.533,29.637c.568.163,1.124.354,1.673.558l9.528-29.621a34.36,34.36,0,0,0,9.9,1.464,34.338,34.338,0,0,0,29.5-16.776c.3-.505.611-1,.887-1.526a34.2,34.2,0,0,0,4-16.087A34.386,34.386,0,0,0,517.184-598.045Z" transform="translate(-469.824 598.233)" fill="#fff"/>
            <path id="Path_888" data-name="Path 888" d="M560.626-565.646a19.835,19.835,0,0,0-1.669-1.374,19.924,19.924,0,0,0-11.215-3.433,19.954,19.954,0,0,0-17.238,9.978,20.6,20.6,0,0,0-1.027,1.894,19.911,19.911,0,0,0-1.774,8.167,20.039,20.039,0,0,0,20.04,20.037,20.039,20.039,0,0,0,20.04-20.037A19.906,19.906,0,0,0,560.626-565.646Z" transform="translate(-411.53 634.05)" fill="#3455a0"/>
            <path id="Path_889" data-name="Path 889" d="M568.878-598.127a23.033,23.033,0,0,0-23.034,23.034,22.97,22.97,0,0,0,9.041,18.266c.466.359.94.706,1.434,1.027a22.9,22.9,0,0,0,12.559,3.741,23.036,23.036,0,0,0,23.034-23.034A23.034,23.034,0,0,0,568.878-598.127Z" transform="translate(-387.981 598.127)" fill="#141e3e"/>
            <path id="Path_890" data-name="Path 890" d="M508.209-554.8c-.549-.2-1.105-.4-1.673-.558a22.981,22.981,0,0,0-6.35-.908,23.034,23.034,0,0,0-23.034,23.034,23.033,23.033,0,0,0,23.034,23.034,23.033,23.033,0,0,0,23.034-23.034A23.018,23.018,0,0,0,508.209-554.8Z" transform="translate(-477.152 652.473)" fill="#141e3e"/>
          </g>
          <g id="Group_493" data-name="Group 493" transform="translate(176.638 10.484)">
            <path id="Path_891" data-name="Path 891" d="M557.645-593.565a3.474,3.474,0,0,1,3.47,3.47,3.473,3.473,0,0,1-3.47,3.47,3.475,3.475,0,0,1-3.47-3.47A3.476,3.476,0,0,1,557.645-593.565Z" transform="translate(-553.805 593.565)" fill="#49a4de"/>
            <path id="Path_892" data-name="Path 892" d="M554.014-578.307a.316.316,0,0,1,.317-.317h.981v-5.653h-.981a.316.316,0,0,1-.317-.317v-4.691a.318.318,0,0,1,.317-.317h6.46a.318.318,0,0,1,.317.317v10.661h.981a.316.316,0,0,1,.317.317v4.017a.318.318,0,0,1-.317.317h-7.759a.318.318,0,0,1-.317-.317Z" transform="translate(-554.014 598.709)" fill="#49a4de"/>
          </g>
          <g id="Group_496" data-name="Group 496" transform="translate(8.135 103.864)">
            <g id="Group_494" data-name="Group 494">
              <path id="Path_893" data-name="Path 893" d="M495.754-522.8a15.081,15.081,0,0,1-15.062-15.064,15.081,15.081,0,0,1,15.062-15.064,15.083,15.083,0,0,1,15.064,15.064A15.082,15.082,0,0,1,495.754-522.8Zm0-28.91a13.861,13.861,0,0,0-13.844,13.846,13.861,13.861,0,0,0,13.844,13.846A13.862,13.862,0,0,0,509.6-537.868,13.862,13.862,0,0,0,495.754-551.714Z" transform="translate(-480.692 552.932)" fill="#49a4de"/>
            </g>
            <g id="Group_495" data-name="Group 495" transform="translate(8.62 10.551)">
              <path id="Path_894" data-name="Path 894" d="M488.732-538.884l-4.289-4.289.861-.861,3.428,3.428,7.734-7.735.861.861Z" transform="translate(-484.443 548.341)" fill="#49a4de"/>
            </g>
          </g>
          <g id="Group_506" data-name="Group 506" transform="translate(3.468 21.843)">
            <path id="Path_895" data-name="Path 895" d="M483.389-573.949H497.9v-10.024h-14.51l-4.728-2.837v15.7Z" transform="translate(-478.661 590.975)" fill="#ca2f2e"/>
            <g id="Group_497" data-name="Group 497" transform="translate(66.944 6.9)">
              <rect id="Rectangle_325" data-name="Rectangle 325" width="3.973" height="10.229" transform="translate(3.973 10.229) rotate(180)" fill="#ca2f2e"/>
            </g>
            <g id="Group_498" data-name="Group 498" transform="translate(70.917 11.322)">
              <rect id="Rectangle_326" data-name="Rectangle 326" width="18.894" height="1.386" fill="#101821"/>
            </g>
            <g id="Group_505" data-name="Group 505" transform="translate(19.238)">
              <path id="Path_896" data-name="Path 896" d="M493.609-568.137h41.129v-16.942H493.609l-6.577-3.543v24.029Z" transform="translate(-487.032 588.622)" fill="#f4e4cd"/>
              <g id="Group_504" data-name="Group 504" transform="translate(11.079 16.705)">
                <g id="Group_499" data-name="Group 499">
                  <rect id="Rectangle_327" data-name="Rectangle 327" width="1.386" height="3.781" fill="#101821"/>
                </g>
                <g id="Group_500" data-name="Group 500" transform="translate(7.685)">
                  <rect id="Rectangle_328" data-name="Rectangle 328" width="1.386" height="3.781" fill="#101821"/>
                </g>
                <g id="Group_501" data-name="Group 501" transform="translate(15.37)">
                  <rect id="Rectangle_329" data-name="Rectangle 329" width="1.386" height="3.781" fill="#101821"/>
                </g>
                <g id="Group_502" data-name="Group 502" transform="translate(23.055)">
                  <rect id="Rectangle_330" data-name="Rectangle 330" width="1.386" height="3.781" fill="#101821"/>
                </g>
                <g id="Group_503" data-name="Group 503" transform="translate(30.74)">
                  <rect id="Rectangle_331" data-name="Rectangle 331" width="1.386" height="3.781" fill="#101821"/>
                </g>
              </g>
            </g>
          </g>
          <g id="Group_519" data-name="Group 519" transform="translate(123.873 30.136)">
            <g id="Group_507" data-name="Group 507" transform="translate(3.558 19.032)">
              <path id="Path_897" data-name="Path 897" d="M532.6-576.732v71.793a8.508,8.508,0,0,0,8.508,8.508,8.506,8.506,0,0,0,8.508-8.508v-71.793Z" transform="translate(-532.602 576.732)" fill="#ea829f"/>
            </g>
            <g id="Group_518" data-name="Group 518">
              <path id="Path_898" data-name="Path 898" d="M551.627-578.408v-6.605H531.054l3.558,6.605v12.427h17.015v-12.427Z" transform="translate(-531.054 585.014)" fill="#f4e4cd"/>
              <g id="Group_517" data-name="Group 517" transform="translate(3.558 13.107)">
                <g id="Group_508" data-name="Group 508" transform="translate(0 20.558)">
                  <rect id="Rectangle_332" data-name="Rectangle 332" width="5.057" height="1.533" fill="#101821"/>
                </g>
                <g id="Group_509" data-name="Group 509" transform="translate(0 30.838)">
                  <rect id="Rectangle_333" data-name="Rectangle 333" width="5.057" height="1.533" fill="#101821"/>
                </g>
                <g id="Group_510" data-name="Group 510" transform="translate(0 41.117)">
                  <rect id="Rectangle_334" data-name="Rectangle 334" width="5.057" height="1.533" fill="#101821"/>
                </g>
                <g id="Group_513" data-name="Group 513">
                  <g id="Group_511" data-name="Group 511">
                    <rect id="Rectangle_335" data-name="Rectangle 335" width="5.057" height="1.533" fill="#101821"/>
                  </g>
                  <g id="Group_512" data-name="Group 512" transform="translate(0 10.279)">
                    <rect id="Rectangle_336" data-name="Rectangle 336" width="5.057" height="1.533" fill="#101821"/>
                  </g>
                </g>
                <g id="Group_514" data-name="Group 514" transform="translate(0 51.395)">
                  <rect id="Rectangle_337" data-name="Rectangle 337" width="5.057" height="1.533" fill="#101821"/>
                </g>
                <g id="Group_515" data-name="Group 515" transform="translate(0 61.675)">
                  <rect id="Rectangle_338" data-name="Rectangle 338" width="5.057" height="1.533" fill="#101821"/>
                </g>
                <g id="Group_516" data-name="Group 516" transform="translate(0 71.954)">
                  <rect id="Rectangle_339" data-name="Rectangle 339" width="5.057" height="1.533" fill="#101821"/>
                </g>
              </g>
            </g>
          </g>
        </g>
        <g id="Group_530" data-name="Group 530" transform="translate(924.248 -519.909)">
          <g id="Group_529" data-name="Group 529" transform="translate(0)" clip-path="url(#clip-path)">
            <g id="Group_528" data-name="Group 528" transform="translate(-6.719 -1.038)">
              <g id="Group_527" data-name="Group 527" transform="translate(0 0)">
                <g id="Group_521" data-name="Group 521" transform="translate(0.091 0)">
                  <rect id="Rectangle_340" data-name="Rectangle 340" width="61.477" height="13.502" transform="matrix(1, 0.002, -0.002, 1, 0.021, 0)" fill="#e3424b"/>
                </g>
                <g id="Group_522" data-name="Group 522" transform="translate(0.074 13.502)">
                  <rect id="Rectangle_341" data-name="Rectangle 341" width="61.477" height="11.528" transform="matrix(1, 0.002, -0.002, 1, 0.018, 0)" fill="#f27c11"/>
                </g>
                <g id="Group_523" data-name="Group 523" transform="translate(0.056 25.029)">
                  <rect id="Rectangle_342" data-name="Rectangle 342" width="61.477" height="11.528" transform="matrix(1, 0.002, -0.002, 1, 0.018, 0)" fill="#ffcd00"/>
                </g>
                <g id="Group_524" data-name="Group 524" transform="translate(0.038 36.557)">
                  <rect id="Rectangle_343" data-name="Rectangle 343" width="61.477" height="11.528" transform="translate(0.018 0) rotate(0.089)" fill="#88b960"/>
                </g>
                <g id="Group_525" data-name="Group 525" transform="translate(0.02 48.084)">
                  <rect id="Rectangle_344" data-name="Rectangle 344" width="61.477" height="11.528" transform="matrix(1, 0.002, -0.002, 1, 0.018, 0)" fill="#3480c4"/>
                </g>
                <g id="Group_526" data-name="Group 526" transform="translate(0 59.612)">
                  <rect id="Rectangle_345" data-name="Rectangle 345" width="61.477" height="13.401" transform="matrix(1, 0.002, -0.002, 1, 0.021, 0)" fill="#5b4d97"/>
                </g>
              </g>
            </g>
          </g>
        </g>
        <g id="Group_531" data-name="Group 531" transform="translate(921.554 -477.42)">
          <path id="Path_900" data-name="Path 900" d="M497.179-602.58l.032-7.325,2.731-4.408,4.755,3.8-.035,7.963Z" transform="translate(-497.179 614.313)" fill="#864a21"/>
        </g>
        <g id="Group_532" data-name="Group 532" transform="translate(965.575 -493.875)">
          <path id="Path_901" data-name="Path 901" d="M527.7-609.7l.032-7.325-6.615-4.449-4.747,3.761-.035,7.963Z" transform="translate(-516.334 621.473)" fill="#864a21"/>
        </g>
      </g>
    </g>
  </g>
</svg>
